<svg xmlns="http://www.w3.org/2000/svg" xmlns:xlink="http://www.w3.org/1999/xlink" width="238.238" height="40.105" viewBox="0 0 238.238 40.105">
  <defs>
    <clipPath id="clip-path">
      <rect id="Rettangolo_128" data-name="Rettangolo 128" width="238.238" height="40.105" fill="#e16900"/>
    </clipPath>
  </defs>
  <g id="Raggruppa_45" data-name="Raggruppa 45" transform="translate(0 0)">
    <path id="Tracciato_8" data-name="Tracciato 8" d="M63.084,0,51.72,39H61.779L73.331,0Z" transform="translate(-22.181 0)" fill="#e16900"/>
    <g id="Raggruppa_30" data-name="Raggruppa 30" transform="translate(0 0)">
      <g id="Raggruppa_29" data-name="Raggruppa 29" clip-path="url(#clip-path)">
        <path id="Tracciato_9" data-name="Tracciato 9" d="M30.566,36.265c1.775-5.076,1.918-8.624.858-11.074-2.35-5.426-9.906-5.658-12.514-5.658C3.23,19.533,0,33.312,0,38.024c0,4.39,2.15,10.459,12.824,10.459,4.24,0,13.759-.109,17.421-10.135H19.359s-1.769,4.522-5.551,4.4a3.536,3.536,0,0,1-3.6-2.905,4.971,4.971,0,0,1,.715-3.575ZM18.116,25.021c2.624-.312,5.354,1.526,3.311,5.328H12.744c.919-3.186,3.393-5.092,5.372-5.328" transform="translate(0 -8.377)" fill="#e16900"/>
        <path id="Tracciato_10" data-name="Tracciato 10" d="M382.165,19.532c1.2,0,5.751-.054,8.512,1.877,2.342,1.637,3.937,3.419,2.9,8.573l-9.8-.009c.126-.713.8-4.19-1.654-4.92-6.232-1.854-12.648,17.166-6.477,17.793,2.965.3,5.123-3.022,5.543-4.5l10.352.018c-1.231,5.277-5.04,10.118-15.275,10.118-12.515,0-13.3-7.445-13.3-10.439,0-4.137,2.654-18.509,19.194-18.509" transform="translate(-155.664 -8.376)" fill="#e16900"/>
        <path id="Tracciato_11" data-name="Tracciato 11" d="M337.46,36.265c1.775-5.076,1.918-8.624.858-11.074-2.35-5.426-9.906-5.658-12.514-5.658-15.679,0-18.91,13.779-18.91,18.491,0,4.39,2.15,10.459,12.824,10.459,4.24,0,13.759-.109,17.422-10.135H326.253s-1.768,4.522-5.551,4.4a3.537,3.537,0,0,1-3.6-2.905,4.974,4.974,0,0,1,.715-3.575ZM325.01,25.021c2.624-.312,5.354,1.526,3.311,5.328h-8.683c.919-3.186,3.393-5.092,5.372-5.328" transform="translate(-131.615 -8.377)" fill="#e16900"/>
        <path id="Tracciato_12" data-name="Tracciato 12" d="M273.971,15.064h5.34l2.413-8.2h9.65l-2.412,8.2,6.4,0-2.086,6.874h-6.346s-.86,2.883-2,6.763c-.872,2.973-1.2,5.571.149,6.453,1.917,1.255,5.442.457,5.756.394l-1.65,5.988s-2.313,1.514-7.749,1.514c-10.4,0-7.465-9.972-6.645-12.756,1.177-3.995,2.483-8.348,2.483-8.348h-5.363Z" transform="translate(-116.61 -2.945)" fill="#e16900"/>
        <path id="Tracciato_13" data-name="Tracciato 13" d="M101.005,21.217s-3.393,12.02-4.455,15.761c-.633,2.231-2.086,5.339-5.76,5.339-.977,0-3.438-.2-2.088-5.02,3.544-12.662,4.539-16.079,4.539-16.079l-10.267,0c-.054.188-2.011,7.08-3.726,13.051-1.031,3.588-1.587,5.82-1.132,8.961.472,3.251,2.541,5.978,7.207,5.978,4.739,0,9.3-4.717,9.3-4.717l-1.08,3.61h10.167L111.4,21.214Z" transform="translate(-33.432 -9.098)" fill="#e16900"/>
        <path id="Tracciato_14" data-name="Tracciato 14" d="M232.017,47.368h9.63c.054-.192,4.013-14.5,4.5-16.241,1.863-6.7.626-11.61-11.753-11.61-10.2,0-14.655,4.96-14.655,8.878h10.3c.2-1.087,1.11-3.729,4.028-3.733,4.248-.006,2.347,5.332,1.99,5.349-5.809.291-11.217.2-15.546,2.335a9.747,9.747,0,0,0-5.726,8.953c.183,2.506,1.64,7.176,8.1,7.176,5.057,0,9.69-4.025,9.69-4.025Zm-6.263-6.549c-1.245-2.2-.042-6.411,8.3-6.158.773.023.761.2.679.619-1.408,7.058-7.484,8.171-8.977,5.539" transform="translate(-92.106 -8.37)" fill="#e16900"/>
        <path id="Tracciato_15" data-name="Tracciato 15" d="M135.18,20.472l10.022.009-.764,3.144c2.556-2.08,5.433-4.108,9.107-4.108,5.967,0,7.256,5.185,7.506,5.185a13.553,13.553,0,0,1,10.478-5.185c10,0,7.442,9.388,6.469,12.61-1.616,5.351-4.545,15.241-4.545,15.241h-10.2s2.937-9.864,4.6-15.491c.665-2.254,1.445-5.825-1.989-5.825-3.152,0-4.82,2.229-5.891,5.762-1.216,4.012-4.687,15.554-4.687,15.554H145.273s2.837-9.66,4.66-15.8c.894-3.013.683-5.544-2.35-5.544-4.238,0-5.452,4.312-5.824,5.649-.756,2.724-4.331,15.7-4.331,15.7H127.262Z" transform="translate(-54.578 -8.37)" fill="#e16900"/>
      </g>
    </g>
  </g>
</svg>
